<svg width="24" height="25" viewBox="0 0 24 25" fill="none" xmlns="http://www.w3.org/2000/svg">
<path d="M11.9048 9.52381H14.2857V5.95238H17.8571V3.57143H14.2857V0H11.9048V3.57143H8.33333V5.95238H11.9048V9.52381ZM7.14286 20.2381C5.83333 20.2381 4.77381 21.3095 4.77381 22.619C4.77381 23.9286 5.83333 25 7.14286 25C8.45238 25 9.52381 23.9286 9.52381 22.619C9.52381 21.3095 8.45238 20.2381 7.14286 20.2381ZM19.0476 20.2381C17.7381 20.2381 16.6786 21.3095 16.6786 22.619C16.6786 23.9286 17.7381 25 19.0476 25C20.3571 25 21.4286 23.9286 21.4286 22.619C21.4286 21.3095 20.3571 20.2381 19.0476 20.2381ZM7.34524 16.369L7.38095 16.2262L8.45238 14.2857H17.3214C18.2143 14.2857 19 13.7976 19.4048 13.0595L24 4.71429L21.9286 3.57143H21.9167L20.6071 5.95238L17.3214 11.9048H8.96428L8.80952 11.5833L6.14286 5.95238L5.0119 3.57143L3.89286 1.19048H0V3.57143H2.38095L6.66667 12.6071L5.05952 15.5238C4.86905 15.8571 4.7619 16.25 4.7619 16.6667C4.7619 17.9762 5.83333 19.0476 7.14286 19.0476H21.4286V16.6667H7.64286C7.4881 16.6667 7.34524 16.5357 7.34524 16.369Z" fill="#056839"/>
</svg>
