<svg width="63" height="63" viewBox="0 0 63 63" fill="none" xmlns="http://www.w3.org/2000/svg">
<path d="M0 31.5C0 23.1457 3.31874 15.1335 9.22614 9.22614C15.1335 3.31874 23.1457 0 31.5 0C35.6366 0 39.7328 0.814772 43.5545 2.39779C47.3763 3.98082 50.8488 6.30109 53.7739 9.22614C56.6989 12.1512 59.0192 15.6237 60.6022 19.4455C62.1852 23.2672 63 27.3634 63 31.5C63 39.8543 59.6813 47.8665 53.7739 53.7739C47.8665 59.6813 39.8543 63 31.5 63C27.3634 63 23.2672 62.1852 19.4455 60.6022C15.6237 59.0192 12.1512 56.6989 9.22614 53.7739C3.31874 47.8665 0 39.8543 0 31.5ZM50.4 28.35H25.2L36.225 17.325L31.752 12.852L13.104 31.5L31.752 50.148L36.225 45.675L25.2 34.65H50.4V28.35Z" fill="black"/>
</svg>
