<svg width="63" height="63" viewBox="0 0 63 63" fill="none" xmlns="http://www.w3.org/2000/svg">
<path d="M63 31.5C63 23.1457 59.6813 15.1335 53.7739 9.22614C47.8665 3.31874 39.8543 0 31.5 0C27.3634 0 23.2672 0.814772 19.4455 2.39779C15.6237 3.98082 12.1512 6.30109 9.22614 9.22614C6.30109 12.1512 3.98081 15.6237 2.39779 19.4455C0.814766 23.2672 0 27.3634 0 31.5C0 39.8543 3.31874 47.8665 9.22614 53.7739C15.1335 59.6813 23.1457 63 31.5 63C35.6366 63 39.7328 62.1852 43.5545 60.6022C47.3763 59.0192 50.8488 56.6989 53.7739 53.7739C59.6813 47.8665 63 39.8543 63 31.5ZM12.6 28.35H37.8L26.775 17.325L31.248 12.852L49.896 31.5L31.248 50.148L26.775 45.675L37.8 34.65H12.6V28.35Z" fill="black"/>
</svg>
